<svg width="234" height="18" viewBox="0 0 234 18" fill="none" xmlns="http://www.w3.org/2000/svg">
<g clip-path="url(#clip0)">
<path d="M0.644531 0.404984H3.79453V17.655H0.644531V0.404984Z" fill="#0C0B0B"/>
<path d="M7.65039 0.404984H10.3579L19.7404 12.465V0.404984H22.8829V17.655H20.1904L10.8004 5.58748V17.6325H7.65039V0.404984Z" fill="#0C0B0B"/>
<path d="M30.0379 3.21748H24.9004V0.404984H38.3029V3.21748H33.1729V17.6325H30.0379V3.21748Z" fill="#0C0B0B"/>
<path d="M40.3125 0.404984H52.1175V3.23248H43.5V7.55248H51V10.2075H43.5V14.805H52.23V17.6325H40.3125V0.404984Z" fill="#0C0B0B"/>
<path d="M62.5425 0.404995C63.6121 0.385539 64.6703 0.627548 65.625 1.10999C66.5077 1.55218 67.2465 2.2363 67.755 3.08249C68.2701 3.97237 68.5296 4.98711 68.505 6.015C68.5317 7.13274 68.1977 8.22935 67.5525 9.14249C66.926 10.0316 66.0289 10.6945 64.995 11.0325L68.895 17.6325H65.2875L61.8825 11.5125H61.2075H58.26V17.6175H55.1025V0.404995H62.5425ZM63.93 8.49749C64.3653 8.26808 64.7286 7.92288 64.98 7.5C65.2446 7.04531 65.3771 6.52584 65.3625 5.99999C65.3667 5.50382 65.2343 5.01607 64.98 4.58999C64.7228 4.16269 64.3548 3.81286 63.915 3.57749C63.4553 3.32647 62.9389 3.19737 62.415 3.20249H58.26V8.84999H62.43C62.9522 8.86509 63.4693 8.74359 63.93 8.49749Z" fill="#0C0B0B"/>
<path d="M71.4375 0.404984H74.595V17.655H71.4375V0.404984Z" fill="#0C0B0B"/>
<path d="M81.9899 16.8C80.5914 16.0172 79.4246 14.8787 78.6074 13.5C77.7852 12.1436 77.3543 10.5861 77.3624 9.00001C77.3539 7.41381 77.7848 5.85623 78.6074 4.50001C79.4301 3.13338 80.5963 2.00599 81.9899 1.23001C83.4161 0.442772 85.0184 0.0298691 86.6474 0.0298691C88.2764 0.0298691 89.8788 0.442772 91.3049 1.23001C92.7007 2.00579 93.8694 3.13308 94.6949 4.50001C95.5176 5.85623 95.9485 7.41381 95.9399 9.00001C95.949 10.5873 95.5153 12.1457 94.6874 13.5C93.8643 14.8708 92.6952 16.0011 91.2974 16.7775C89.8727 17.5648 88.2715 17.9777 86.6437 17.9777C85.0159 17.9777 83.4147 17.5648 81.9899 16.7775V16.8ZM89.7449 14.3025C90.6853 13.7769 91.4657 13.0063 92.0032 12.0726C92.5406 11.139 92.8151 10.0772 92.7974 9.00001C92.8152 7.91982 92.5409 6.85489 92.0036 5.91764C91.4664 4.98038 90.686 4.20557 89.7449 3.67501C88.7982 3.14737 87.7312 2.8735 86.6474 2.88001C85.5658 2.87171 84.5007 3.14574 83.5574 3.67501C82.6224 4.1938 81.845 4.95566 81.3074 5.88001C80.7684 6.83027 80.4938 7.90765 80.5124 9.00001C80.5001 10.0908 80.7853 11.1642 81.3374 12.105C81.8777 13.0234 82.6548 13.7797 83.5874 14.295C84.5269 14.8269 85.5903 15.1012 86.6699 15.09C87.7459 15.0987 88.8056 14.8273 89.7449 14.3025Z" fill="#0C0B0B"/>
<path d="M106.11 0.405001C107.182 0.384927 108.243 0.626936 109.2 1.11C110.081 1.55232 110.817 2.23657 111.323 3.0825C111.841 3.97102 112.101 4.98671 112.073 6.015C112.096 7.13231 111.763 8.22795 111.12 9.1425C110.494 10.0316 109.597 10.6945 108.563 11.0325L112.463 17.6325H108.84L105.435 11.5125H104.76H101.813V17.6175H98.6553V0.405001H106.11ZM107.498 8.4975C107.935 8.26825 108.301 7.92317 108.555 7.5C108.82 7.04532 108.952 6.52585 108.938 6C108.942 5.50383 108.81 5.01607 108.555 4.59C108.296 4.16431 107.929 3.81495 107.49 3.5775C107.031 3.32647 106.514 3.19737 105.99 3.2025H101.835V8.85H105.998C106.52 8.8651 107.037 8.74359 107.498 8.4975Z" fill="#0C0B0B"/>
<path d="M125.025 3.21748H119.895V0.404984H133.297V3.21748H128.167V17.6325H125.025V3.21748Z" fill="#0C0B0B"/>
<path d="M135.3 0.404984H147.105V3.23248H138.457V7.55248H145.957V10.2075H138.457V14.805H147.225V17.6325H135.3V0.404984Z" fill="#0C0B0B"/>
<path d="M162.42 17.6325L161.055 14.3025H153.12L151.755 17.6325H148.425L155.595 0.382492H158.595L165.765 17.6325H162.42ZM154.17 11.6325H159.945L157.192 4.87499L157.11 4.49999L157.012 4.91249L154.17 11.6325Z" fill="#0C0B0B"/>
<path d="M170.25 16.8C168.877 16.0127 167.738 14.8737 166.95 13.5C166.153 12.1352 165.738 10.5806 165.75 9C165.741 7.4178 166.161 5.86275 166.965 4.5C167.748 3.12761 168.881 1.98851 170.25 1.2C171.498 0.495451 172.892 0.0883136 174.323 0.0102643C175.754 -0.0677849 177.183 0.185359 178.5 0.75C179.726 1.26731 180.797 2.09078 181.613 3.14143C182.429 4.19208 182.96 5.43467 183.158 6.75H179.925C179.674 5.59287 179.007 4.56816 178.05 3.87C177.078 3.2088 175.925 2.86551 174.75 2.8875C173.716 2.87157 172.697 3.13038 171.795 3.6375C170.903 4.14698 170.171 4.89496 169.68 5.7975C169.16 6.78026 168.901 7.88072 168.93 8.9925C168.898 10.107 169.157 11.2106 169.68 12.195C170.156 13.0912 170.873 13.8366 171.75 14.3475C172.667 14.8576 173.702 15.1164 174.75 15.0975C175.925 15.1304 177.081 14.7975 178.058 14.145C179.016 13.4457 179.677 12.4128 179.91 11.25H183.143C182.952 12.5655 182.424 13.8092 181.611 14.8605C180.797 15.9118 179.726 16.7349 178.5 17.25C177.341 17.7454 176.093 18.0005 174.833 18C173.226 18.0164 171.643 17.602 170.25 16.8Z" fill="#0C0B0B"/>
<path d="M185.888 0.404984H189.045V7.55248H197.73V0.404984H200.895V17.655H197.73V10.365H189.045V17.6325H185.888V0.404984Z" fill="#0C0B0B"/>
<path d="M204.75 0.404984H216.555V3.23248H207.907V7.55248H215.407V10.2075H207.907V14.805H216.675V17.6325H204.75V0.404984Z" fill="#0C0B0B"/>
<path d="M226.987 0.404995C228.057 0.385539 229.115 0.627548 230.07 1.10999C230.952 1.55218 231.691 2.2363 232.2 3.08249C232.715 3.97237 232.974 4.98711 232.95 6.015C232.976 7.13274 232.642 8.22935 231.997 9.14249C231.371 10.0316 230.474 10.6945 229.44 11.0325L233.34 17.6325H229.717L226.312 11.5125H225.637H222.69V17.6175H219.532V0.404995H226.987ZM228.375 8.49749C228.81 8.26808 229.173 7.92288 229.425 7.5C229.689 7.04531 229.822 6.52584 229.807 5.99999C229.811 5.50382 229.679 5.01607 229.425 4.58999C229.167 4.16269 228.799 3.81286 228.36 3.57749C227.9 3.32647 227.384 3.19737 226.86 3.20249H222.705V8.84999H226.875C227.397 8.86509 227.914 8.74359 228.375 8.49749Z" fill="#0C0B0B"/>
</g>
<defs>
<clipPath id="clip0">
<rect width="234" height="18" fill="white"/>
</clipPath>
</defs>
</svg>
